# xmcd
#
# Track frame offsets:
#	150
#	15889
#	36541
#	54191
#	70403
#	88294
#	110880
#	133735
#	156126
#	171885
#
# Disc length: 2532 seconds
# Revision: 1
# Processed by: cddbd v1.5.2PL0 Copyright (c) Steve Scherf et al.
# Submitted via: dBpowerAMP V12.0
#
DISCID=8809e20a
DTITLE=Cross Eyed Cats - Just Messin
DYEAR=2012
DGENRE=Blues
TTITLE0=Snatch It Back and Hold
TTITLE1=Help Me
TTITLE2=Lonesome Cain
TTITLE3=Trouble No More
TTITLE4=Rock Me
TTITLE5=40 Days and 40 Nights
TTITLE6=Leave My Little Girl Alone
TTITLE7=One Room Country Shack
TTITLE8=Dont Start Me Talkin
TTITLE9=You Dont Have to Go
EXTD=
EXTT0=
EXTT1=
EXTT2=
EXTT3=
EXTT4=
EXTT5=
EXTT6=
EXTT7=
EXTT8=
EXTT9=
PLAYORDER=
